<svg width="98" height="48" viewBox="0 0 98 48" fill="none" xmlns="http://www.w3.org/2000/svg">
<path d="M7.5049 26.9725C6.82927 27.1159 6.21423 27.1176 5.65977 26.9776C5.1125 26.8266 4.65349 26.5519 4.28272 26.1535C3.91196 25.7551 3.66168 25.25 3.53189 24.6383C3.37303 23.8897 3.38683 23.1902 3.57326 22.54C3.7669 21.8788 4.10537 21.3156 4.58869 20.8505C5.07201 20.3854 5.67431 20.0763 6.39558 19.9233C6.95252 19.8051 7.43849 19.8021 7.85351 19.9145C8.26852 20.0268 8.62046 20.224 8.90932 20.5062C9.19625 20.7793 9.41982 21.1135 9.58004 21.5088C9.74025 21.9042 9.84306 22.3212 9.88846 22.76C9.91088 22.9557 9.88682 23.0896 9.81627 23.1618C9.74573 23.234 9.63741 23.2856 9.49133 23.3166L4.88977 24.293L4.8175 23.2779L8.65213 22.4642L8.4629 22.719C8.44019 22.3422 8.35773 22.021 8.2155 21.7554C8.07134 21.4807 7.86673 21.2808 7.60167 21.1558C7.34574 21.0288 7.02148 21.0069 6.62889 21.0902C6.22716 21.1755 5.90872 21.3385 5.67357 21.5792C5.43841 21.8199 5.27422 22.1028 5.181 22.4279C5.08584 22.7439 5.04575 23.072 5.06071 23.4123L5.08231 23.8514C5.11417 24.5411 5.33609 25.0474 5.74807 25.3703C6.16006 25.6931 6.70386 25.7829 7.37949 25.6395C7.65339 25.5814 7.93061 25.494 8.21115 25.3772C8.48975 25.2513 8.73321 25.0947 8.94154 24.9074C9.0937 24.7701 9.23563 24.6971 9.36732 24.6882C9.50621 24.6683 9.62186 24.6962 9.71427 24.772C9.81388 24.8368 9.88637 24.9311 9.93175 25.055C9.9752 25.1699 9.9795 25.3025 9.94464 25.453C9.91698 25.5925 9.84077 25.7279 9.716 25.8593C9.441 26.1371 9.09504 26.3727 8.6781 26.5662C8.26117 26.7596 7.8701 26.895 7.5049 26.9725ZM14.5995 25.4672C14.006 25.5931 13.4943 25.5872 13.0644 25.4494C12.6325 25.3025 12.2973 25.0493 12.0588 24.6896C11.8294 24.328 11.7006 23.8783 11.6723 23.3404L11.519 20.3246L10.9164 20.4524C10.6973 20.4989 10.5141 20.4901 10.3669 20.4259C10.2269 20.3507 10.1385 20.2263 10.1017 20.0528C10.0514 19.8154 10.0902 19.6164 10.2183 19.4556C10.3464 19.2949 10.5428 19.1864 10.8076 19.1302L11.4513 18.9936L11.3777 17.6353C11.3672 17.3609 11.426 17.1433 11.5541 16.9825C11.6802 16.8126 11.8757 16.6996 12.1405 16.6434C12.4326 16.5814 12.6601 16.619 12.8228 16.7563C12.9854 16.8935 13.0759 17.1176 13.0942 17.4285L13.1632 18.6304L14.5053 18.3456C14.7335 18.2972 14.9167 18.306 15.0548 18.3722C15.2 18.4272 15.292 18.546 15.3308 18.7286C15.3773 18.9478 15.343 19.1459 15.2279 19.3229C15.12 19.4889 14.9428 19.5981 14.6963 19.6504L13.2309 19.9613L13.3747 22.8647C13.4024 23.355 13.5343 23.6848 13.7706 23.8541C14.005 24.0143 14.2956 24.0575 14.6426 23.9839C14.8069 23.9491 14.9318 23.9082 15.0173 23.8615C15.1119 23.8128 15.2049 23.7787 15.2962 23.7594C15.424 23.7323 15.5231 23.7494 15.5933 23.8108C15.6708 23.8612 15.7289 23.9776 15.7677 24.1602C15.8335 24.4707 15.8288 24.6959 15.7536 24.8359C15.6784 24.9759 15.5598 25.0917 15.398 25.1833C15.2961 25.243 15.1696 25.2985 15.0182 25.3497C14.8669 25.4009 14.7273 25.4401 14.5995 25.4672ZM23.1353 23.656C22.7062 23.7471 22.2765 23.7905 21.8463 23.7864C21.4271 23.7895 21.0514 23.7499 20.7191 23.6678C20.5282 23.6224 20.3827 23.5436 20.2825 23.4313C20.1895 23.3079 20.1341 23.1813 20.1161 23.0515C20.1053 22.9107 20.1267 22.7869 20.1804 22.6801C20.2412 22.5622 20.3327 22.476 20.4547 22.4215C20.5858 22.3651 20.7423 22.3605 20.9241 22.4078C21.2472 22.4919 21.5763 22.5366 21.9114 22.5418C22.2464 22.547 22.5692 22.5167 22.8796 22.4509C23.3087 22.3598 23.6209 22.2125 23.8162 22.0088C24.0096 21.796 24.0782 21.5573 24.022 21.2925C23.9833 21.1099 23.8874 20.9728 23.7344 20.8812C23.5814 20.7897 23.3768 20.7472 23.1206 20.7539L21.8054 20.761C21.282 20.7671 20.8477 20.6541 20.5027 20.422C20.1649 20.1788 19.9485 19.8336 19.8536 19.3862C19.7664 18.9753 19.8021 18.5814 19.9606 18.2042C20.1263 17.8161 20.4115 17.4741 20.8163 17.1783C21.2302 16.8806 21.7566 16.6639 22.3958 16.5283C22.7244 16.4586 23.0856 16.4296 23.4793 16.4415C23.8802 16.4423 24.2351 16.4958 24.5438 16.6021C24.7184 16.6604 24.8522 16.7513 24.9452 16.8747C25.0362 16.9889 25.0816 17.1129 25.0813 17.2465C25.0882 17.3691 25.0603 17.4847 24.9975 17.5935C24.9328 17.6931 24.8339 17.7665 24.7008 17.8139C24.5677 17.8612 24.4093 17.8566 24.2256 17.8002C23.9702 17.7208 23.6988 17.6782 23.4113 17.6724C23.1239 17.6666 22.8432 17.6928 22.5693 17.7509C22.1219 17.8458 21.7979 18.0052 21.5974 18.2291C21.3949 18.4438 21.3227 18.6881 21.3808 18.962C21.4157 19.1263 21.4959 19.2572 21.6215 19.3546C21.7563 19.45 21.9426 19.4963 22.1805 19.4936L23.4957 19.4864C24.0687 19.4889 24.5277 19.6062 24.8727 19.8383C25.2249 20.0593 25.4485 20.3935 25.5434 20.8409C25.6926 21.5439 25.5431 22.1433 25.0949 22.6391C24.6559 23.133 24.0027 23.472 23.1353 23.656ZM29.48 22.3098C29.0052 22.4105 28.5776 22.3963 28.1972 22.2671C27.8168 22.1379 27.5089 21.8789 27.2737 21.4899C27.0477 21.0989 26.9161 20.5687 26.879 19.8992L26.7099 16.4716C26.6974 16.188 26.7552 15.9659 26.8833 15.8051C27.0114 15.6444 27.2078 15.5359 27.4726 15.4797C27.7556 15.4197 27.9785 15.4582 28.1412 15.5955C28.3111 15.7216 28.4061 15.9447 28.4263 16.2648L28.6017 19.5193C28.6352 20.037 28.7511 20.4036 28.9495 20.6191C29.157 20.8327 29.4662 20.8959 29.8771 20.8087C30.3883 20.7002 30.7679 20.4432 31.0158 20.0375C31.2637 19.6319 31.3713 19.1273 31.3386 18.5236L31.1745 15.5243C31.162 15.2407 31.2198 15.0186 31.3479 14.8578C31.476 14.697 31.6724 14.5886 31.9372 14.5324C32.2294 14.4704 32.4568 14.508 32.6195 14.6452C32.7822 14.7825 32.8736 15.0111 32.8939 15.3312L33.1784 20.652C33.2106 21.2082 32.9573 21.5434 32.4186 21.6577C32.1538 21.7138 31.9421 21.6824 31.7832 21.5635C31.6244 21.4445 31.5313 21.2305 31.5039 20.9215L31.4316 19.9064L31.606 20.2558C31.4751 20.8083 31.2232 21.2625 30.8503 21.6183C30.4846 21.9631 30.0278 22.1936 29.48 22.3098ZM35.8575 20.928C35.5836 20.9861 35.3653 20.9466 35.2026 20.8093C35.0471 20.661 34.9592 20.4268 34.939 20.1067L34.6602 14.8133C34.6478 14.5297 34.7092 14.302 34.8445 14.1302C34.9797 13.9584 35.1798 13.8444 35.4445 13.7882C35.7093 13.732 35.9185 13.7735 36.072 13.9127C36.2347 14.0499 36.3262 14.2786 36.3464 14.5987L36.3859 15.3917L36.2489 15.4208C36.3172 14.8434 36.5304 14.364 36.8884 13.9828C37.2444 13.5924 37.7062 13.3179 38.2736 13.1593C38.5254 13.0868 38.702 13.0875 38.8036 13.1613C38.9143 13.2333 38.9919 13.3742 39.0364 13.5842C39.1004 13.8855 39.0793 14.1237 38.9734 14.2989C38.8655 14.4649 38.6684 14.5926 38.382 14.682L37.9936 14.8073C37.3954 15.001 36.9969 15.2812 36.798 15.6478C36.5972 16.0053 36.5092 16.4676 36.5341 17.0348L36.6829 19.8942C36.7045 20.1758 36.6431 20.4035 36.4986 20.5773C36.3634 20.7491 36.1496 20.866 35.8575 20.928ZM43.9423 19.2411C43.3489 19.3671 42.8372 19.3612 42.4072 19.2234C41.9753 19.0765 41.6401 18.8232 41.4016 18.4636C41.1722 18.102 41.0434 17.6523 41.0152 17.1144L40.8618 14.0985L40.2593 14.2264C40.0401 14.2729 39.857 14.2641 39.7098 14.1999C39.5698 14.1246 39.4814 14.0003 39.4446 13.8268C39.3942 13.5894 39.4331 13.3903 39.5612 13.2296C39.6892 13.0688 39.8857 12.9604 40.1505 12.9042L40.7941 12.7676L40.7206 11.4093C40.7101 11.1348 40.7688 10.9172 40.8969 10.7565C41.0231 10.5866 41.2185 10.4736 41.4833 10.4174C41.7755 10.3554 42.0029 10.393 42.1656 10.5302C42.3283 10.6674 42.4188 10.8915 42.437 11.2025L42.506 12.4044L43.8481 12.1196C44.0764 12.0712 44.2595 12.08 44.3976 12.1461C44.5429 12.2012 44.6349 12.32 44.6736 12.5026C44.7201 12.7217 44.6858 12.9198 44.5707 13.0969C44.4628 13.2629 44.2856 13.3721 44.0391 13.4244L42.5737 13.7353L42.7175 16.6387C42.7452 17.129 42.8772 17.4587 43.1135 17.6281C43.3478 17.7882 43.6385 17.8315 43.9854 17.7579C44.1498 17.723 44.2747 17.6822 44.3602 17.6355C44.4548 17.5868 44.5477 17.5527 44.639 17.5333C44.7669 17.5062 44.8659 17.5234 44.9362 17.5848C45.0137 17.6351 45.0718 17.7516 45.1105 17.9342C45.1764 18.2446 45.1717 18.4699 45.0964 18.6099C45.0212 18.7499 44.9026 18.8656 44.7408 18.9572C44.639 19.017 44.5124 19.0725 44.3611 19.1237C44.2097 19.1749 44.0702 19.214 43.9423 19.2411ZM49.2548 18.1139C48.5974 18.2534 48.0052 18.2503 47.4781 18.1045C46.9602 17.9568 46.5249 17.6818 46.1724 17.2795C45.8291 16.8753 45.5925 16.3674 45.4627 15.7557C45.3348 15.1531 45.3154 14.5895 45.4045 14.0649C45.4935 13.5404 45.6702 13.0688 45.9344 12.6501C46.2077 12.2296 46.5487 11.8805 46.9573 11.603C47.3659 11.3255 47.8305 11.1315 48.3509 11.0211C49.0082 10.8816 49.5959 10.8857 50.1138 11.0334C50.6409 11.1792 51.0761 11.4542 51.4195 11.8584C51.7701 12.2515 52.0112 12.7585 52.1429 13.3794C52.2708 13.9819 52.2902 14.5455 52.2011 15.0701C52.1121 15.5947 51.9309 16.0672 51.6576 16.4878C51.3934 16.9064 51.0569 17.2545 50.6483 17.532C50.2397 17.8096 49.7752 18.0035 49.2548 18.1139ZM49.0198 16.8042C49.4398 16.7151 49.7661 16.5218 49.9988 16.2244C50.2405 15.925 50.3955 15.5534 50.4635 15.1096C50.5315 14.6658 50.5123 14.1929 50.4057 13.6907C50.2914 13.152 50.0719 12.7693 49.747 12.5424C49.4294 12.3045 49.0423 12.234 48.5858 12.3308C48.175 12.418 47.8487 12.6113 47.6069 12.9107C47.3651 13.21 47.2102 13.5816 47.1421 14.0254C47.0722 14.4601 47.0914 14.933 47.1999 15.4443C47.3142 15.983 47.5302 16.3713 47.8478 16.6092C48.1726 16.8361 48.5633 16.9011 49.0198 16.8042ZM56.2416 16.6315C55.7669 16.7322 55.3393 16.718 54.9588 16.5888C54.5784 16.4596 54.2706 16.2005 54.0354 15.8115C53.8093 15.4206 53.6777 14.8904 53.6406 14.2208L53.4715 10.7933C53.459 10.5097 53.5169 10.2875 53.6449 10.1268C53.773 9.96602 53.9695 9.85755 54.2342 9.80137C54.5173 9.74132 54.7401 9.7799 54.9028 9.91712C55.0727 10.0433 55.1678 10.2664 55.188 10.5865L55.3633 13.841C55.3968 14.3586 55.5127 14.7252 55.7111 14.9407C55.9187 15.1543 56.2278 15.2175 56.6387 15.1304C57.15 15.0219 57.5296 14.7648 57.7774 14.3592C58.0253 13.9536 58.1329 13.4489 58.1002 12.8452L57.9361 9.84598C57.9236 9.56239 57.9815 9.34022 58.1095 9.17946C58.2376 9.01871 58.4341 8.91024 58.6988 8.85406C58.991 8.79207 59.2184 8.82968 59.3811 8.9669C59.5438 9.10412 59.6353 9.33279 59.6555 9.6529L59.9401 14.9737C59.9722 15.5298 59.7189 15.865 59.1803 15.9793C58.9155 16.0355 58.7037 16.0041 58.5449 15.8851C58.3861 15.7662 58.2929 15.5522 58.2655 15.2431L58.1933 14.228L58.3676 14.5775C58.2367 15.13 57.9849 15.5842 57.6119 15.94C57.2462 16.2847 56.7894 16.5152 56.2416 16.6315ZM64.9531 14.783C64.3596 14.909 63.8479 14.903 63.418 14.7653C62.9861 14.6184 62.6509 14.3651 62.4124 14.0055C62.183 13.6439 62.0542 13.1941 62.0259 12.6563L61.8726 9.64044L61.27 9.7683C61.0509 9.81479 60.8677 9.80595 60.7205 9.74177C60.5805 9.66652 60.4921 9.54216 60.4553 9.36869C60.405 9.13131 60.4438 8.93224 60.5719 8.77149C60.7 8.61073 60.8964 8.50226 61.1612 8.44608L61.8049 8.30951L61.7313 6.95119C61.7208 6.67673 61.7796 6.45913 61.9077 6.29837C62.0338 6.12849 62.2293 6.01546 62.4941 5.95928C62.7862 5.89728 63.0137 5.9349 63.1764 6.07212C63.339 6.20934 63.4295 6.43344 63.4478 6.74442L63.5168 7.94628L64.8589 7.6615C65.0871 7.61307 65.2703 7.62191 65.4084 7.68803C65.5536 7.74308 65.6456 7.86191 65.6844 8.04451C65.7309 8.26363 65.6966 8.46173 65.5815 8.63881C65.4736 8.80482 65.2964 8.91397 65.0499 8.96628L63.5845 9.27721L63.7283 12.1806C63.7559 12.6709 63.8879 13.0006 64.1242 13.17C64.3586 13.3301 64.6492 13.3734 64.9962 13.2998C65.1605 13.2649 65.2854 13.2241 65.3709 13.1774C65.4655 13.1287 65.5585 13.0946 65.6498 13.0752C65.7776 13.0481 65.8767 13.0653 65.9469 13.1267C66.0244 13.177 66.0825 13.2935 66.1213 13.4761C66.1871 13.7865 66.1824 14.0117 66.1072 14.1517C66.0319 14.2917 65.9134 14.4075 65.7516 14.4991C65.6497 14.5589 65.5232 14.6144 65.3718 14.6656C65.2205 14.7168 65.0809 14.7559 64.9531 14.783Z" fill="#A2CCEE"/>
<path d="M96.7315 31.0021C97.2838 30.9989 97.7341 31.444 97.7373 31.9963L97.7897 40.9961C97.7929 41.5484 97.3478 41.9987 96.7955 42.002C96.2433 42.0052 95.793 41.5601 95.7897 41.0078L95.7431 33.0079L87.7433 33.0545C87.191 33.0577 86.7407 32.6126 86.7375 32.0604C86.7343 31.5081 87.1794 31.0578 87.7316 31.0546L96.7315 31.0021ZM41.5995 28.9403C41.3571 28.4441 41.5629 27.8453 42.0592 27.6029C42.5555 27.3606 43.1543 27.5664 43.3966 28.0627L41.5995 28.9403ZM43.3966 28.0627C48.5432 38.6011 56.2915 44.8036 65.3205 45.7574C74.3746 46.7138 85.0268 42.4273 96.0261 31.2991L97.4485 32.7051C86.2085 44.0768 74.9911 48.7901 65.1104 47.7463C55.2046 46.6999 46.9529 39.9022 41.5995 28.9403L43.3966 28.0627Z" fill="#A2CCEE"/>
</svg>
