<svg fill="none" height="148" viewBox="0 0 148 148" width="148" xmlns="http://www.w3.org/2000/svg" xmlns:xlink="http://www.w3.org/1999/xlink"><clipPath id="a"><path d="m0 0h148v147.999h-148z"/></clipPath><g clip-path="url(#a)"><path clip-rule="evenodd" d="m67.6932 13.0165c.1879.2466.4799.3638.8761.3515.4053-.0125.7264-.1216.9634-.3272.2368-.2146.3802-.53.4305-.9462l.3027-2.45655.8104-.02503c.2612-.00807.4655.0397.6129.14332.1561.09432.2831.26616.381.51556l.7886 1.8955c.1465.3651.3214.6301.5248.795.2124.1647.4852.2419.8184.2317.3512-.0109.6239-.0824.8181-.2146.1943-.1322.3058-.3159.3346-.5512.0287-.2352-.0294-.5128-.1745-.8328l-.3943-.9478c-.1847-.436-.4251-.77558-.721-1.01882-.1267-.10409-.2691-.18458-.4273-.24148.255-.0622.4961-.1425.7233-.24089.5604-.24265.9953-.60761 1.3047-1.09489.3095-.48729.4527-1.10464.4296-1.85206-.0262-.84647-.3393-1.49931-.9393-1.9585-.5914-.46847-1.4319-.68588-2.5215-.65223l-2.8366.08762c-.4142.01279-.7397.1265-.9764.34113-.2371.20562-.3807.51652-.4309.9327l-.8928 6.99062c-.0576.4705.0076.829.1955 1.0756zm4.5851-5.19827-1.7965.05549.2934-2.32107 1.4993-.04631c.4953-.0153.8581.05913 1.0885.22327.2395.16386.3646.42139.3754.77259.0131.42324-.1076.74695-.3621.97114-.2457.21491-.6117.32987-1.098.34489zm-8.3234 6.19277c-.4187.0634-.736-.0162-.9519-.2386-.207-.2239-.3099-.5728-.3087-1.0468l.0495-7.16944c.0003-.4192.1015-.74431.3034-.97534.2006-.23993.5058-.3909.9156-.45291.4098-.062.7181.0189.9251.24271.2159.22246.3189.57136.3088 1.04671l-.0516 7.15607c.001.4282-.0943.7615-.286 1.0001-.193.2297-.4944.3755-.9042.4375zm-10.2855 2.0303c.742.1309 1.5497.0691 2.4234-.1855.7438-.2168 1.3819-.5388 1.9143-.9661.5385-.4385.959-.9599 1.2614-1.5641.3025-.6043.476-1.2649.5205-1.9816.0419-.7255-.053-1.48605-.285-2.28181-.2495-.8563-.6398-1.53551-1.1709-2.03762-.5336-.51076-1.1714-.83163-1.9134-.9626-.7445-.13962-1.5579-.08087-2.4402.17625-.7438.21679-1.385.54442-1.9235.98288-.5323.42729-.9498.94308-1.2523 1.54737-.2938.60176-.466 1.26663-.5166 1.99453-.0445.7168.048 1.4688.2774 2.2559.2521.8649.6449 1.5528 1.1785 2.0635.5397.4996 1.1819.8192 1.9264.9589zm3.0823-2.9957c-.2826.3826-.6877.6508-1.2153.8046-.5795.1689-1.0896.1252-1.5303-.1311-.4407-.2564-.7657-.7435-.9749-1.4614-.1916-.6573-.2641-1.2603-.2175-1.8087.0553-.55105.2242-1.01788.5068-1.40054.2913-.38518.6921-.65213 1.2024-.80086.5882-.17141 1.1026-.12896 1.5433.12736.4468.24515.7761.731.9879 1.45756.189.64868.2572 1.25288.2044 1.81258-.0552.551-.2241 1.0178-.5068 1.4005zm-10.1813 6.5923c-.3143.1571-.6064.2074-.8763.1509-.27-.0565-.5278-.2197-.7735-.4897l-5.0512-5.3922c-.2094-.2378-.3363-.4715-.3806-.7012-.0362-.2337.0022-.4492.115-.6466.1169-.2095.2963-.3746.538-.4955.2741-.1369.538-.1831.7918-.1388.2538.0444.5217.2278.8037.5502l3.6338 4.0771.4402-6.3546c.0242-.35451.0948-.63653.2117-.84601.125-.21351.3285-.39075.6105-.53169.2982-.14901.5642-.19125.7978-.12672.2377.05243.4231.18141.556.38693s.1852.46138.1569.76758l-.7273 8.43071c-.0283.3465-.1049.6265-.2299.84-.129.2055-.3345.3787-.6166.5196zm-12.3193 6.105c.4175-.0711.7979-.2455 1.1412-.5231.3502-.2832.601-.625.7523-1.0254s.1977-.8087.1393-1.2249c-.0515-.4218-.216-.8044-.4936-1.1476-.2889-.3573-.6342-.6053-1.0359-.7439-.4074-.1456-.8234-.18-1.2479-.1032-.4175.0711-.7944.2426-1.1307.5145-.3643.2945-.6164.649-.7564 1.0634-.1456.4074-.1863.8227-.1222 1.2459.0654.4105.2285.7769.489 1.0992.2833.3503.6258.5947 1.0275.7333s.8142.1759 1.2374.1118zm-8.3004 10.8994c-.5643.7138-1.1868 1.2323-1.8674 1.5556-.6876.3177-1.3961.4294-2.1255.3351-.7309-.107-1.4497-.4399-2.1564-.9986-.6431-.5085-1.1542-1.0677-1.5334-1.6776-.3807-.6226-.6257-1.2642-.735-1.9249-.1037-.6677-.0624-1.33.1238-1.9867.1847-.6694.5173-1.308.9978-1.9158.57-.7209 1.1988-1.2402 1.8864-1.5579.6806-.3233 1.3863-.4314 2.1172-.3244.7238.1014 1.4355.4286 2.1352.9818.6502.5141 1.1684 1.0789 1.5546 1.6944.3792.6099.6206 1.2487.7244 1.9165.1037.6677.0632 1.3363-.1215 2.0057-.1862.6567-.5196 1.289-1.0002 1.8968zm-1.6157-1.312c.3408-.4311.5155-.8845.5241-1.3601.0085-.4756-.1244-.954-.3987-1.435-.2814-.4866-.6871-.9395-1.2171-1.3586-.5937-.4694-1.1436-.6745-1.6498-.6153-.5077.0465-.9515.3101-1.3315.7907-.3296.4169-.5016.8668-.5157 1.3495-.0085.4756.1244.9539.3987 1.435.2799.474.6884.9233 1.2255 1.348.5866.4637 1.1337.6724 1.6414.6259.5077-.0466.9487-.3066 1.3231-.7801zm-5.2703 11.2249c.3054-.0672.5676-.2976.7867-.6912l2.175-3.9087c.1665-.2992.2113-.5836.1345-.8531-.0803-.2819-.274-.5082-.581-.6791-.2205-.1226-.4313-.142-.6327-.0581-.2013.0838-.3808.2675-.5385.5509l-1.6231 2.9168-1.5611-1.2244 1.5639-2.8106c.1665-.2991.2135-.5874.141-.8649-.0803-.2818-.2739-.5081-.581-.679-.2204-.1226-.4313-.142-.6326-.0582-.2013.0839-.3808.2675-.5385.5509l-1.4786 2.657-1.4444-1.1285 1.7085-3.0703c.1709-.307.2179-.5953.1411-.8649-.0803-.2818-.274-.5082-.581-.679-.2205-.1227-.4313-.1421-.6327-.0582-.2013.0839-.3808.2675-.5385.5509l-2.1948 3.9442c-.1927.3464-.2594.6701-.2002.9712.0593.3011.2469.5755.5626.8234l5.5493 4.3406c.3507.2777.6827.3851.9961.3223zm-6.0591-9.3722c.0876-.1575.1039-.3443.0489-.5605l-.4071-1.6029c-.0576-.2486-.1629-.4206-.316-.5161-.1565-.1077-.3202-.1472-.4908-.1185-.1785.0244-.3392.1-.4819.2268-.1383.1189-.2321.2781-.2812.4776-.0527.1872-.0257.3981.0809.6327l.6448 1.4259c.0962.1979.2217.3244.3765.3796.1592.0474.3128.0401.4607-.022.1524-.0699.2741-.1774.3652-.3226zm2.5134 19.2841c-.1459.4072-.3697.6715-.6716.793-.2989.1131-.6398.0628-1.0226-.1509l-6.183-3.3774c-.35193-.193-.5817-.4332-.68931-.7206-.10761-.2873-.09458-.6176.03909-.9908l.73367-2.0484c.54076-1.5097 1.30471-2.5471 2.29185-3.1123.9902-.5736 2.1002-.6401 3.3301-.1996.7209.2582 1.3515.6085 1.8916 1.0508.5317.4392.9476.9614 1.2476 1.5665.2916.6021.4476 1.2752.4682 2.0194.0151.7327-.1293 1.5232-.4331 2.3714zm-1.4263-1.9894.5422-1.514c.1641-.458.2348-.8824.2121-1.2734-.0281-.4024-.1368-.7667-.3262-1.0929-.1894-.3263-.451-.6113-.7847-.8553-.3391-.2554-.7462-.4682-1.2212-.6383-.67-.24-1.2515-.233-1.7444.0211-.493.2541-.87617.7628-1.14959 1.5261l-.41012 1.1451zm-.1434 7.7568c.2844-.1232.4711-.3919.5599-.8059.087-.4052.0572-.7387-.0893-1.0005-.1554-.2637-.4335-.4708-.8342-.6213l-6.67523-2.5796c-.44105-.1776-.8038-.2048-1.08825-.0815-.28257.1144-.46733.3743-.55428.7795s-.0537.744.09976 1.0165c.14464.2707.41296.4803.80493.6289l6.68837 2.5824c.443.1688.8057.196 1.0883.0815zm-.4483 6.2217c-.0298.3501-.1391.6256-.328.8266-.1889.2009-.4626.3359-.8211.4048l-7.23453 1.5005c-.31209.0548-.57767.0413-.79675-.0406-.21832-.0909-.38229-.236-.49194-.4352-.11786-.209-.16533-.4481-.14242-.7174.02595-.3052.12402-.5546.29419-.748.17017-.1935.4663-.3266.88841-.3992l5.37344-.9763-5.19377-3.6876c-.28994-.2055-.49385-.4127-.6117-.6217-.1171-.2179-.16228-.4839-.13556-.7981.02825-.3322.13081-.5811.30766-.7469.16864-.1756.3753-.2665.61997-.2728s.49029.0824.73688.2661l6.81602 5.0148c.281.2047.48.416.5971.634.1081.2171.1488.4828.1221.797zm120.616 9.4864c-.189.201-.298.4765-.328.8266-.027.3142.014.5799.122.797.117.2179.316.4293.597.634l6.816 5.0148c.247.1837.492.2724.737.2661s.451-.0972.62-.2728c.177-.1658.279-.4147.308-.7469.026-.3142-.019-.5802-.136-.7982-.118-.2089-.322-.4161-.612-.6216l-5.193-3.6876 5.373-.9763c.422-.0726.718-.2057.888-.3992.171-.1935.269-.4428.295-.748.022-.2693-.025-.5085-.143-.7174-.109-.1992-.273-.3443-.492-.4352-.219-.0819-.484-.0954-.797-.0406l-7.234 1.5005c-.359.0689-.632.2039-.821.4048zm-.998 8.8416c-.499.565-.867 1.2866-1.105 2.1649-.203.7478-.26 1.4602-.173 2.1373.093.6881.319 1.3187.677 1.8917.358.5731.832 1.0654 1.42 1.477.598.4138 1.296.7292 2.096.946.861.2333 1.644.2541 2.35.0626.714-.1893 1.32-.5664 1.818-1.1314.507-.5626.881-1.2874 1.122-2.1743.202-.7479.257-1.4658.163-2.1539-.087-.6771-.31-1.3021-.668-1.8752-.36-.5644-.838-1.0579-1.433-1.4805-.588-.4115-1.278-.7245-2.07-.9389-.869-.2357-1.661-.2589-2.375-.0697-.708.2003-1.315.5817-1.822 1.1444zm.95 4.1919c-.179-.4406-.197-.9262-.053-1.4566.158-.5826.461-.9952.909-1.2377.449-.2425 1.034-.266 1.755-.0704.661.1791 1.214.4315 1.657.7571.442.3343.752.7218.932 1.1624.177.4493.196.9305.056 1.4436-.16.5913-.464 1.0082-.913 1.2507-.442.2536-1.028.2814-1.758.0834-.653-.1767-1.204-.4334-1.654-.7701-.441-.3343-.752-.7218-.931-1.1624zm-4.525 5.4541c.164-.3906.397-.6203.699-.6891.299-.0605.65.0329 1.055.2803l6.099 3.7688c.358.2178.583.4738.675.7658.101.297.071.636-.089 1.018s-.389.604-.688.664c-.302.069-.654-.024-1.055-.28l-6.086-3.7638c-.366-.2216-.602-.4764-.706-.7641-.096-.2843-.064-.6176.096-.9999zm-1.235 3.9548c-.308.031-.56.219-.757.564-.201.352-.276.682-.224.992.059.314.253.601.582.861l1.936 1.542-.402.704c-.13.227-.277.376-.442.448-.162.084-.375.102-.639.055l-2.028-.318c-.388-.066-.706-.055-.952.032-.252.095-.46.288-.626.577-.174.305-.255.575-.244.81s.11.426.295.573c.186.148.453.243.801.286l1.015.159c.468.071.883.043 1.245-.082.155-.054.298-.133.429-.238-.08.25-.138.497-.172.742-.086.605-.002 1.166.252 1.685.253.518.705.963 1.354 1.334.736.42 1.456.494 2.161.222.708-.259 1.333-.862 1.874-1.809l1.407-2.465c.205-.359.278-.696.219-1.01-.051-.31-.241-.595-.57-.855l-5.494-4.414c-.371-.295-.711-.426-1.02-.395zm2.037 6.626.892-1.561 1.825 1.463-.743 1.302c-.246.43-.499.701-.76.812-.264.118-.549.09-.854-.084-.368-.21-.581-.482-.639-.816-.055-.322.038-.694.279-1.116zm-10.647 5.859c.293-.319.595-.476.908-.47.313.018.604.193.874.526l4.504 5.667c.243.308.358.609.345.903s-.15.584-.411.869c-.28.306-.574.452-.88.44-.307-.012-.595-.191-.865-.536l-3.927-4.936-2.1 2.291c-.231.253-.464.4-.698.442-.24.049-.46-.018-.659-.201-.279-.255-.426-.542-.44-.861-.013-.305.111-.601.373-.886zm-4.817 5.3c-.234.025-.467.13-.699.316-.219.174-.369.368-.451.583s-.102.45-.061.705l.221 1.569-3.339 2.66-.811-.615c-.32-.229-.604-.354-.852-.376-.249-.009-.514.099-.796.324-.197.157-.333.334-.406.531-.074.197-.068.399.018.608.091.215.273.415.547.6l6.291 4.319c.291.206.571.305.841.297.276-.001.545-.105.805-.313.261-.208.437-.428.527-.662.084-.227.103-.514.059-.858l-1.012-8.818c-.036-.306-.135-.532-.298-.678-.163-.147-.358-.211-.584-.192zm-.669 5.354.496 3.561-.021.017-2.565-1.913zm-15.5433 5.025c.3194-.147.613-.187.8809-.122.2679.066.5204.238.7564.516l4.868 5.558c.202.244.321.482.357.713.029.235-.017.449-.136.643-.124.205-.309.364-.554.477-.279.127-.544.165-.796.112-.253-.053-.514-.245-.785-.577l-3.4958-4.196-.6523 6.336c-.0361.354-.1161.633-.2399.839-.132.209-.3413.379-.628.511-.303.139-.5702.172-.8015.1-.2359-.061-.4168-.196-.5427-.405-.126-.21-.1697-.468-.1312-.773l1.0087-8.402c.0398-.345.1258-.622.2578-.831.1358-.201.347-.368.6336-.499zm-5.6854 2.664c-.2472-.187-.5729-.217-.9771-.091-.3956.123-.6714.313-.8273.569-.1533.265-.197.609-.131 1.032l1.0347 7.081c.0622.472.2168.801.464.988.2386.19.5556.223.9513.1.3956-.124.6743-.319.8362-.587.1646-.259.2152-.596.152-1.01l-1.0388-7.094c-.0708-.469-.2255-.798-.464-.988zm-5.7782 1.441c.4262-.073.7664-.007 1.0205.196.2453.205.3688.526.3707.965l.094 7.044c.0046.402-.0918.72-.2893.955s-.4916.385-.8823.452l-2.1447.367c-1.5807.27-2.8596.114-3.8366-.468-.9859-.581-1.589-1.516-1.8092-2.803-.129-.755-.1335-1.476-.0135-2.164.1216-.679.3723-1.298.7521-1.856.3813-.55.891-1.016 1.5293-1.4.6309-.373 1.3904-.635 2.2784-.787zm-1.0327 2.22-1.5852.271c-.4795.082-.884.228-1.2134.44-.3368.222-.6008.496-.7919.821-.1912.325-.3111.693-.3598 1.104-.056.42-.0415.88.0436 1.377.1199.701.4116 1.204.875 1.509s1.0947.389 1.894.252l1.1988-.205zm-9.2369-.462c-.209-.232-.5388-.347-.9892-.343l-4.473.034c-.3424.003-.6119.104-.8086.304-.2056.208-.307.489-.3043.84.0019.252.089.445.2612.579s.4205.199.7448.197l3.3379-.026-.2957 1.962-3.2162.025c-.3424.003-.6164.104-.8221.304-.2056.208-.307.488-.3043.84.0019.252.089.445.2612.579.1723.134.4205.199.7449.197l3.0405-.024-.2698 1.813-3.5135.028c-.3514.002-.6254.103-.8221.303-.2056.209-.307.489-.3043.84.0019.253.089.446.2612.58.1723.133.4205.199.7449.197l4.5135-.035c.3964-.003.711-.105.9437-.305s.379-.498.439-.895l1.0409-6.968c.0687-.442-.0015-.784-.2106-1.026zm-5.1673 9.892c-.1801.002-.3507.079-.5117.234l-1.194 1.144c-.1878.173-.2856.349-.2932.53-.0165.189.0298.351.1389.485.1092.143.2542.246.4348.308.1717.061.3564.064.5542.009.1889-.047.359-.174.5106-.383l.9227-1.263c.1248-.182.173-.353.1447-.515-.0373-.162-.1194-.292-.2462-.39-.1359-.098-.2895-.151-.4608-.159zm-7.1147-11.032c.8992.139 1.6571.426 2.2736.859.6152.442 1.0614 1.003 1.3386 1.685.2668.688.3312 1.478.193 2.368-.1258.81-.3607 1.531-.7048 2.161-.3543.638-.792 1.167-1.3132 1.588-.53.419-1.1267.709-1.79.871-.6735.169-1.3931.194-2.1588.075-.908-.141-1.6697-.433-2.2848-.875-.6166-.433-1.0583-.994-1.3252-1.682-.2683-.68-.334-1.461-.1972-2.342.1272-.819.3635-1.548.7089-2.188.344-.63.7811-1.155 1.3111-1.574.5301-.419 1.1319-.713 1.8055-.882.6632-.162 1.3777-.183 2.1433-.064zm-.346 2.052c-.543-.084-1.0236-.013-1.4418.214-.4181.227-.769.578-1.0525 1.054-.2849.484-.4792 1.061-.5829 1.728-.1161.748-.0237 1.328.2771 1.739.2905.419.7385.675 1.3439.769.5252.082 1.0014.01 1.4284-.215.4182-.227.769-.579 1.0526-1.054.2746-.477.4645-1.054.5695-1.731.1147-.739.0268-1.318-.2637-1.736-.2906-.419-.7341-.675-1.3306-.768zm-13.162-3.948c-.267-.328-.6056-.574-1.0159-.737-.4188-.166-.8397-.217-1.2628-.152-.423.065-.8015.225-1.1354.48-.3423.252-.5948.583-.7576.993-.1695.427-.216.85-.1395 1.268.0731.426.2473.806.5226 1.138.267.329.6014.573 1.0034.732.4354.173.868.219 1.2978.137.4264-.073.8082-.241 1.1454-.505.3255-.258.5647-.58.7175-.966.1662-.418.211-.837.1345-1.255-.0764-.418-.2464-.795-.51-1.133zm-11.4974-7.891c.2901.199.4761.429.558.693.0819.263.0646.568-.0519.914l-2.256 7.035c-.1059.299-.2485.524-.4276.674-.1867.145-.3936.216-.621.214-.2399-.001-.4714-.077-.6945-.229-.2529-.173-.4217-.381-.5063-.625-.0846-.243-.0546-.566.09-.97l1.7959-5.157-5.7669 2.705c-.3216.151-.6023.226-.8422.226-.2474-.005-.5012-.097-.7615-.275-.2752-.188-.4414-.4-.4986-.635-.0698-.234-.0472-.458.0678-.674s.3131-.387.5944-.511l7.7208-3.463c.3165-.144.5984-.213.8458-.208.2422.013.4935.108.7538.286zm-6.5899-4.485c-.2498-.711-.7-1.384-1.3504-2.021-.5538-.542-1.1474-.94-1.7809-1.194-.6463-.254-1.3069-.365-1.9818-.332-.675.033-1.3357.206-1.9821.519-.6528.319-1.269.775-1.8486 1.367-.6238.638-1.0242 1.311-1.2012 2.02-.1834.716-.1501 1.429.0997 2.14.2436.717.6938 1.397 1.3506 2.04.5538.541 1.1539.939 1.8001 1.194.6335.254 1.2877.365 1.9627.332.6685-.039 1.3324-.215 1.9915-.528.6465-.313 1.2564-.763 1.8297-1.349.6301-.644 1.0368-1.323 1.2201-2.039.1706-.715.1341-1.432-.1094-2.149zm-4.1225-1.216c.4721.058.9045.28 1.2973.664.4315.422.6436.888.6364 1.398-.0071.509-.2722 1.032-.7952 1.566-.4788.49-.9687.848-1.4695 1.077-.5073.222-.9969.304-1.469.245-.4785-.065-.9078-.283-1.2877-.655-.4379-.428-.6533-.897-.6461-1.407-.0055-.51.2563-1.035.7856-1.576.4725-.483.9656-.839 1.4792-1.067.5072-.222.9969-.304 1.469-.245zm-2.5432-6.618c.2614.333.3485.649.2613.946-.0928.291-.3457.552-.7587.785l-6.2633 3.489c-.365.206-.6977.278-.9983.216-.3076-.056-.5893-.247-.8452-.573-.2558-.326-.3374-.634-.2446-.925.0872-.297.3401-.559.7587-.784l6.2527-3.481c.372-.212.7091-.293 1.0111-.244.295.055.5704.245.8263.571zm-2.8807-3.049c.1234-.284.0831-.596-.121-.936-.2088-.348-.4608-.575-.7559-.681-.3029-.102-.6483-.073-1.036.086l-2.2916.935-.4176-.695c-.1345-.224-.1926-.425-.1741-.604.0061-.183.094-.378.2639-.585l1.2692-1.613c.2471-.306.3929-.588.4376-.847.04-.265-.0258-.541-.1974-.827-.181-.301-.3765-.504-.5867-.609s-.425-.113-.6443-.023c-.2194.09-.4333.276-.6417.559l-.6346.807c-.2903.374-.4694.749-.5371 1.126-.0291.162-.0298.325-.0022.491-.1788-.192-.3666-.363-.5634-.513-.4853-.371-1.0162-.572-1.5925-.604-.5763-.033-1.185.144-1.826.529-.726.436-1.1429 1.028-1.2506 1.776-.1201.745.1005 1.584.6618 2.519l1.4614 2.433c.2134.355.4716.583.7745.685.2951.107.6366.08 1.0243-.079l6.5367-2.634c.4387-.18.7198-.411.8433-.696zm-6.7753-1.463.9256 1.54-2.1689.878-.7724-1.286c-.2552-.425-.3674-.778-.3366-1.059.0261-.289.1897-.524.4909-.705.363-.218.7045-.271 1.0244-.158.3075.109.5865.373.837.79zm.1138-12.0928c.135.4108.1236.7512-.0342 1.0212-.1692.2642-.4648.4325-.8867.5049l-7.14595 1.154c-.38772.061-.70662.0141-.95669-.1408-.25007-.1548-.43559-.4163-.55657-.7843-.12941-.3937-.11381-.7213.04683-.9828.16063-.2614.45762-.4254.89095-.492l6.22653-1.0083-.9707-2.9528c-.1069-.3252-.1214-.6002-.0435-.8249.075-.2333.2409-.3922.4977-.4766.3594-.1182.6813-.1054.9656.0382.273.1379.4699.3909.5909.7589zm-2.2338-6.6639c.0925-.2159.1149-.4706.067-.7641-.0449-.2756-.1412-.5018-.2887-.6786-.1475-.1767-.3425-.3092-.5851-.3975l-1.4767-.5744-.6872-4.2131.9333-.4067c.356-.1676.604-.3541.744-.5595.1296-.2128.1654-.4971.1073-.8527-.0406-.249-.1287-.4537-.2644-.6141-.1357-.1605-.3154-.2544-.5389-.2818-.2325-.026-.4963.0353-.7916.1838l-6.84345 3.3756c-.32194.1529-.54553.3491-.67078.5886-.13413.241-.17437.5259-.12071.8549s.16014.5901.31944.7832c.15784.1842.39798.3413.72042.4713l8.18628 3.4298c.2839.118.5297.1418.7373.0714s.3584-.2091.4525-.4161zm-4.3424-3.2013-3.34913-1.3088-.00435-.0267 2.92325-1.3019zm73.0198-70.8546c-.4241-.0843-.715-.2615-.8726-.5316-.147-.2772-.1483-.6174-.0039-1.0204l2.5064-6.79069c.1374-.36768.3349-.62237.5927-.76405s.5767-.17478.9567-.09929c.4064.08076.6841.25533.8328.5237.1488.26838.1457.60762-.0093 1.01774l-2.1816 5.91829 3.0487.6057c.3358.0667.5824.1892.7399.3675.1663.18.2231.4025.1705.6676-.0738.3712-.243.6452-.5078.8223-.2543.1699-.5713.2171-.9513.1417zm7.111 1.377c.1419.1872.3523.3325.6311.4359.2618.0971.506.1253.7326.0844s.4381-.145.6347-.3123l1.2292-.9998 4.0022 1.4846-.1076 1.0123c-.0303.3923.0093.7001.1187.9232.121.2179.3504.3895.6883.5148.2365.0878.4581.1123.6646.0736s.377-.1485.5113-.3293c.1375-.1892.2146-.4489.2313-.779l.4477-7.61751c.026-.35545-.034-.6468-.181-.87404-.1427-.2357-.3706-.41151-.6831-.52744-.3126-.11594-.5921-.15238-.8387-.10932-.2382.04619-.4934.17732-.7658.3934l-7.0272 5.42181c-.2429.1886-.3851.3905-.4265.6057-.0414.2153.0047.4149.1382.599zm4.929-2.1931 2.7929-2.2647.0253.0094-.3128 3.1847zm12.2531 10.655c-.29-.1983-.476-.4291-.557-.6924-.082-.2634-.065-.568.051-.914l2.256-7.0357c.106-.2986.249-.5231.428-.6735.187-.1452.394-.2166.621-.2139.24.0003.471.0767.695.2292.252.1729.421.381.506.6244.084.2434.054.5666-.09.9698l-1.796 5.1577 5.767-2.705c.321-.1512.602-.2267.842-.2264.247.0054.501.0971.761.275.276.1882.442.4.499.6356.07.2332.047.4578-.068.6739s-.313.3862-.594.5103l-7.721 3.4636c-.316.1438-.598.213-.846.2076-.242-.0128-.493-.1082-.754-.2862zm5.057 3.3263c-.032.3084.111.6028.428.8831.311.2744.616.4119.916.4125.306-.0062.623-.147.951-.4226l5.52-4.5541c.371-.2974.572-.6003.604-.9087.039-.3024-.097-.5907-.407-.8651-.311-.2744-.623-.4115-.935-.4113-.307-.0066-.621.1245-.943.3934l-5.529 4.5642c-.364.3034-.566.6063-.605.9086zm4.316 4.2345c-.284-.3262-.405-.6507-.364-.9735.047-.316.258-.5888.631-.8184l5.968-3.7444c.341-.2127.662-.2958.966-.2493.303.0465.585.2193.845.5183l1.429 1.6409c1.053 1.2095 1.585 2.383 1.595 3.5204.017 1.1442-.467 2.1452-1.452 3.003-.578.5029-1.192.8819-1.842 1.1371-.643.2492-1.301.3569-1.976.3231-.668-.0398-1.331-.2326-1.991-.5783-.646-.3449-1.265-.8571-1.857-1.5366zm2.432-.2724 1.056 1.2129c.32.3669.656.636 1.008.8072.365.1722.736.2553 1.113.2495.377-.0059.754-.0948 1.129-.2668.389-.171.774-.4222 1.154-.7535.537-.4674.815-.9782.834-1.5324s-.237-1.1371-.77-1.7487l-.798-.9173zm4.431 8.1046c-.09.2997-.016.6408.222 1.0235l2.359 3.8002c.181.2909.408.4682.681.532.285.0668.577.0075.876-.1779.214-.133.333-.3079.358-.5246.024-.2167-.049-.4629-.22-.7384l-1.761-2.8358 1.829-.7696 1.696 2.7325c.181.2908.41.472.688.5435.285.0667.577.0074.876-.1779.214-.1331.333-.308.358-.5247.024-.2167-.049-.4628-.22-.7384l-1.604-2.5832 1.688-.7141 1.854 2.985c.185.2985.414.4797.687.5436.286.0667.577.0074.876-.178.214-.133.334-.3079.358-.5246.025-.2167-.049-.4629-.22-.7384l-2.381-3.8347c-.209-.3367-.459-.5523-.751-.6468s-.623-.0639-.993.0916l-6.49 2.7413c-.413.1716-.669.4096-.766.7139zm11.136-.742c.095.153.25.2581.466.315l1.598.4231c.246.0704.447.0619.605-.0255.17-.0845.284-.2083.342-.3714.066-.1679.078-.345.036-.5314-.037-.1787-.13-.3379-.281-.4778-.138-.137-.335-.2159-.592-.2367l-1.56-.1292c-.219-.0121-.391.0361-.514.1446-.119.1161-.187.2539-.205.4134-.013.167.022.3257.105.4759zm-5.763 11.6774c-.348-.8407-.498-1.637-.448-2.3888.057-.7553.305-1.4284.743-2.0193.45-.586 1.091-1.0514 1.923-1.3962.757-.3137 1.495-.4875 2.212-.5213.729-.029 1.409.0698 2.039.2964.634.2349 1.192.5937 1.675 1.0764.494.4875.89 1.0892 1.186 1.8051.352.849.499 1.6511.441 2.4064-.049.7518-.299 1.4208-.749 2.0068-.441.5826-1.074 1.0446-1.898 1.3859-.765.3171-1.511.4944-2.237.5316-.717.0339-1.393-.0667-2.026-.3016-.634-.2349-1.198-.5961-1.692-1.0836-.483-.4827-.873-1.082-1.169-1.7978zm1.933-.7714c.21.5077.521.8812.932 1.1205s.894.3564 1.447.3513c.562-.0085 1.156-.142 1.78-.4006.699-.2896 1.146-.6698 1.341-1.1407.207-.4659.193-.9819-.041-1.5479-.204-.4911-.513-.8605-.927-1.1081-.411-.2392-.894-.3563-1.448-.3513-.55.0134-1.141.1511-1.774.4131-.691.2862-1.14.6622-1.346 1.1282-.207.466-.195.9778.036 1.5355zm3.51 13.2583c-.142.399-.175.8161-.101 1.2513.076.444.252.8298.527 1.1575.275.3276.609.5677 1.001.7201.393.1612.807.2047 1.242.1303.453-.0775.838-.2576 1.155-.5403.326-.2843.56-.6304.7-1.0383.142-.399.177-.8116.104-1.2379-.079-.4618-.265-.855-.558-1.1796-.285-.3261-.627-.5647-1.028-.7155-.39-.1435-.789-.1804-1.197-.1105-.445.0759-.825.2552-1.142.538-.318.2827-.552.6244-.703 1.0249z" fill="#39073f" fill-rule="evenodd"/></g></svg>