<svg width="137" height="27" viewBox="0 0 137 27" fill="none" xmlns="http://www.w3.org/2000/svg">
<g opacity="0.5">
<path fill-rule="evenodd" clip-rule="evenodd" d="M102.606 0.651976C102.983 0.236769 103.518 0 104.079 0H107.97C109.068 0 109.958 0.890224 109.958 1.98837V21.8721C109.958 22.9702 109.068 23.8605 107.97 23.8605H104.069C103.514 23.8605 102.984 23.6282 102.607 23.2198L98.6154 18.8895H91.0684C89.9703 18.8895 89.0801 17.9993 89.0801 16.9011V6.95924C89.0801 5.8611 89.9703 4.97087 91.0684 4.97087H98.686L102.606 0.651976ZM96.0395 8.35093H92.8581V15.5091H96.0395V8.35093ZM105.583 4.77153C105.583 4.33227 105.939 3.97618 106.379 3.97618C106.818 3.97618 107.174 4.33227 107.174 4.77153V19.0878C107.174 19.5271 106.818 19.8832 106.379 19.8832C105.939 19.8832 105.583 19.5271 105.583 19.0878V4.77153ZM124.076 3.77787H111.151V20.0825H124.076L137 26.4453V10.1407L124.076 3.77787Z" fill="#FFD231"/>
<path fill-rule="evenodd" clip-rule="evenodd" d="M29.0304 1.98877C27.9322 1.98877 27.042 2.87899 27.042 3.97714V19.8841C27.042 20.9823 27.9322 21.8725 29.0304 21.8725H44.9374C46.0355 21.8725 46.9257 20.9823 46.9257 19.8841V3.97714C46.9257 2.87899 46.0355 1.98877 44.9374 1.98877H29.0304ZM32.6095 5.56848C31.5114 5.56848 30.6211 6.45871 30.6211 7.55686V16.3057C30.6211 17.4038 31.5114 18.2941 32.6095 18.2941H41.3583C42.4565 18.2941 43.3467 17.4038 43.3467 16.3057V7.55686C43.3467 6.45871 42.4565 5.56848 41.3583 5.56848H32.6095ZM32.8094 9.74361C32.8094 8.64546 33.6996 7.75524 34.7977 7.75524H39.1721C40.2703 7.75524 41.1605 8.64546 41.1605 9.74361V14.118C41.1605 15.2162 40.2703 16.1064 39.1721 16.1064H34.7977C33.6996 16.1064 32.8094 15.2162 32.8094 14.118V9.74361ZM12.9244 3.7789H25.8488V20.0835H12.9244L0 26.4463V10.1417L12.9244 3.7789Z" fill="#FFD231"/>
<path d="M66.1186 14.557H80.2539V9.31515H66.1186C65.7933 9.31057 65.5333 9.04321 65.5379 8.71799C65.5401 8.56669 65.6003 8.42197 65.7063 8.31391L72.0318 1.98828H64.6225L54.6807 11.9301L64.6225 21.872H72.02L65.7063 15.5582C65.4785 15.326 65.4822 14.9531 65.7145 14.7254C65.8225 14.6194 65.9672 14.5591 66.1186 14.557Z" fill="#FF4235"/>
</g>
</svg>
