<svg width="324" height="317" viewBox="0 0 324 317" fill="none" xmlns="http://www.w3.org/2000/svg">
<path fill-rule="evenodd" clip-rule="evenodd" d="M199.969 44.1895L185.79 16.3013C175.81 -3.32882 147.768 -3.3288 137.788 16.3013L123.609 44.1896C117.534 56.1399 104.218 62.5525 91.0865 59.8518L60.4423 53.549C38.8723 49.1126 21.3883 71.0368 30.5133 91.0787L43.477 119.552C49.0321 131.753 45.7433 146.162 35.4445 154.745L11.4105 174.774C-5.50664 188.872 0.733339 216.211 22.0921 221.572L52.4361 229.19C65.4388 232.454 74.6537 244.009 74.9427 257.412L75.6169 288.69C76.0915 310.707 101.357 322.874 118.866 309.518L143.74 290.543C154.399 282.412 169.179 282.412 179.838 290.543L204.713 309.518C222.222 322.874 247.487 310.707 247.961 288.69L248.635 257.412C248.924 244.009 258.139 232.454 271.142 229.19L301.486 221.572C322.845 216.211 329.085 188.872 312.168 174.774L288.134 154.745C277.835 146.162 274.546 131.753 280.101 119.552L293.065 91.0787C302.19 71.0368 284.706 49.1126 263.136 53.549L232.492 59.8517C219.36 62.5525 206.044 56.1399 199.969 44.1895ZM187.053 15.6591C176.548 -5.00422 147.03 -5.00419 136.525 15.6591L122.346 43.5473C116.56 54.9286 103.878 61.0359 91.372 58.4637L60.7278 52.1609C38.0226 47.491 19.6184 70.5691 29.2236 91.6659L42.1873 120.139C47.4778 131.759 44.3456 145.482 34.5373 153.656L10.5033 173.685C-7.30424 188.525 -0.73584 217.303 21.7471 222.947L52.0911 230.564C64.4746 233.673 73.2507 244.678 73.5259 257.443L74.2001 288.721C74.6997 311.896 101.295 324.703 119.725 310.644L144.6 291.67C154.751 283.926 168.827 283.926 178.978 291.67L203.853 310.645C222.284 324.703 248.879 311.896 249.378 288.721L250.052 257.443C250.327 244.678 259.104 233.673 271.487 230.564L301.831 222.947C324.314 217.303 330.882 188.525 313.075 173.685L289.041 153.656C279.233 145.482 276.1 131.759 281.391 120.139L294.355 91.6659C303.96 70.5691 285.556 47.491 262.85 52.1609L232.206 58.4637C219.7 61.0359 207.018 54.9286 201.232 43.5473L187.053 15.6591Z" fill="#FF4235"/>
</svg>
