<svg width="266" height="271" viewBox="0 0 266 271" fill="none" xmlns="http://www.w3.org/2000/svg">
<path opacity="0.2" fill-rule="evenodd" clip-rule="evenodd" d="M214.958 76.3391L220.123 50.7195C223.759 32.6861 205.388 18.1519 188.675 25.8399L164.931 36.762C154.757 41.4423 142.709 38.7419 135.506 30.1665L118.697 10.1544C106.865 -3.93176 84.0466 1.36989 79.6371 19.2298L73.3725 44.6031C70.6881 55.4758 61.0653 63.2113 49.8698 63.4962L23.743 64.1613C5.35282 64.6294 -4.72888 85.7747 6.48525 100.358L22.417 121.075C29.2439 129.953 29.292 142.3 22.5345 151.23L6.76468 172.072C-4.33544 186.742 5.9108 207.808 24.3041 208.132L50.4352 208.594C61.6326 208.792 71.3154 216.452 74.0845 227.303L80.5466 252.627C85.0952 270.452 107.954 275.576 119.676 261.398L136.329 241.255C143.465 232.624 155.491 229.83 165.702 234.43L189.53 245.167C206.302 252.725 224.56 238.048 220.783 220.043L215.418 194.465C213.119 183.504 218.433 172.359 228.396 167.245L251.647 155.31C268.013 146.909 267.922 123.484 251.491 115.21L228.148 103.457C218.145 98.4202 212.745 87.3173 214.958 76.3391ZM221.284 50.9534C225.111 31.971 205.772 16.6718 188.18 24.7644L164.437 35.6866C154.747 40.1439 143.273 37.5721 136.413 29.4051L119.603 9.39303C107.148 -5.43454 83.1294 0.146129 78.4878 18.946L72.2232 44.3193C69.6667 54.6742 60.502 62.0414 49.8396 62.3128L23.7129 62.9778C4.35479 63.4706 -6.25752 85.7288 5.54682 101.079L21.4786 121.797C27.9803 130.252 28.0262 142.011 21.5904 150.516L5.82066 171.357C-5.86368 186.799 4.92182 208.974 24.2832 209.316L50.4143 209.777C61.0785 209.966 70.3003 217.261 72.9375 227.596L79.3996 252.92C84.1875 271.683 108.249 277.076 120.588 262.152L137.241 242.009C144.038 233.789 155.491 231.128 165.215 235.51L189.043 246.247C206.698 254.202 225.917 238.752 221.942 219.8L216.577 194.222C214.388 183.783 219.448 173.169 228.937 168.298L252.188 156.363C269.415 147.52 269.319 122.862 252.023 114.153L228.68 102.399C219.154 97.6027 214.011 87.0285 216.119 76.5731L221.284 50.9534Z" fill="#FF4235"/>
</svg>
