<svg width="66" height="39" viewBox="0 0 66 39" fill="none" xmlns="http://www.w3.org/2000/svg">
<path fill-rule="evenodd" clip-rule="evenodd" d="M7.22101 0H37.3326C41.3042 0 44.5536 3.17724 44.5536 7.22101V31.5558C44.5536 35.5274 41.3042 38.7768 37.3326 38.7768H7.22101C3.24945 38.7768 0 35.5274 0 31.5558V7.22101C0 3.24945 3.24945 0 7.22101 0ZM59.4288 4.477C59.7899 4.26037 60.2231 4.04374 60.6564 3.97153C63.4726 3.32164 65.9999 5.48795 65.9999 8.15972V30.4726C65.9999 31.2669 65.7833 31.989 65.4223 32.6389C64.1947 34.733 61.5951 35.4551 59.501 34.2276L48.1641 27.7286V10.9759L59.4288 4.477Z" fill="#39073F"/>
</svg>
